<svg width="69" height="30" viewBox="0 0 69 30" fill="none" xmlns="http://www.w3.org/2000/svg">
<path d="M8.10944 28.1438C6.66164 28.1438 5.22603 27.8985 3.80273 27.408C2.37933 26.9175 1.22604 26.1817 0.342536 25.2006C0.0726358 24.9063 -0.0377639 24.5752 0.0113361 24.2073C0.0603361 23.8394 0.24433 23.5205 0.56343 23.2508C0.90693 23.0055 1.26283 22.9075 1.63093 22.9565C1.99903 23.0055 2.30573 23.165 2.55113 23.4347C3.14013 24.1215 3.91313 24.6488 4.87023 25.0167C5.85183 25.3846 6.93154 25.5685 8.10944 25.5685C9.92534 25.5685 11.2382 25.262 12.0481 24.6488C12.8579 24.0112 13.275 23.2508 13.2996 22.3679C13.2996 21.4849 12.8825 20.7613 12.0481 20.1973C11.2137 19.6087 9.83954 19.155 7.92544 18.8361C5.44694 18.4436 3.63083 17.757 2.47753 16.7759C1.32423 15.7948 0.747435 14.6299 0.747435 13.2809C0.747435 12.0301 1.07873 10.9877 1.74133 10.1538C2.40393 9.31993 3.28733 8.69453 4.39163 8.27763C5.49593 7.86063 6.71063 7.65213 8.03583 7.65213C9.68003 7.65213 11.091 7.93423 12.2689 8.49833C13.4714 9.06243 14.4407 9.82273 15.1769 10.7792C15.4223 11.0981 15.5204 11.4292 15.4714 11.7725C15.4223 12.1159 15.2259 12.398 14.8824 12.6187C14.5879 12.7904 14.2444 12.8517 13.8517 12.8026C13.4836 12.7291 13.1646 12.5451 12.8947 12.2508C12.2812 11.5396 11.5695 11.0245 10.7597 10.7057C9.94993 10.3623 9.01743 10.1906 7.96223 10.1906C6.61243 10.1906 5.53273 10.4727 4.72293 11.0368C3.91313 11.5764 3.50823 12.263 3.50823 13.097C3.50823 13.661 3.65543 14.1516 3.94993 14.5685C4.26903 14.9854 4.79654 15.3533 5.53274 15.6722C6.29354 15.9911 7.34863 16.2608 8.69843 16.4816C10.5389 16.7759 11.9867 17.2174 13.0419 17.806C14.1216 18.37 14.8824 19.0446 15.3241 19.8294C15.7904 20.5898 16.0235 21.4236 16.0235 22.3311C16.0235 23.4838 15.68 24.5016 14.9928 25.3846C14.3303 26.243 13.3978 26.9175 12.1953 27.408C11.0174 27.8985 9.65544 28.1438 8.10944 28.1438ZM26.9581 27.9598C25.6581 27.9598 24.4921 27.6533 23.4611 27.0401C22.4551 26.4269 21.6581 25.5931 21.0691 24.5384C20.4801 23.4593 20.1851 22.2329 20.1851 20.8595V2.86956C20.1851 2.45262 20.3081 2.10925 20.5531 1.83946C20.8231 1.56968 21.1671 1.43478 21.5841 1.43478C22.0011 1.43478 22.3451 1.56968 22.6151 1.83946C22.8851 2.10925 23.0201 2.45262 23.0201 2.86956V20.8595C23.0201 22.1103 23.3881 23.1404 24.1241 23.9498C24.8601 24.7346 25.8051 25.1271 26.9581 25.1271H27.9521C28.3451 25.1271 28.6641 25.262 28.9091 25.5317C29.1551 25.8015 29.2771 26.1449 29.2771 26.5618C29.2771 26.9787 29.1301 27.3222 28.8361 27.5919C28.5411 27.8372 28.1731 27.9598 27.7311 27.9598H26.9581ZM17.7928 11.0368C17.4247 11.0368 17.1178 10.9264 16.8725 10.7057C16.6271 10.4603 16.5044 10.166 16.5044 9.82273C16.5044 9.45483 16.6271 9.16053 16.8725 8.93983C17.1178 8.69453 17.4247 8.57193 17.7928 8.57193H27.1791C27.5471 8.57193 27.8541 8.69453 28.0991 8.93983C28.3451 9.16053 28.4681 9.45483 28.4681 9.82273C28.4681 10.166 28.3451 10.4603 28.0991 10.7057C27.8541 10.9264 27.5471 11.0368 27.1791 11.0368H17.7928ZM34.0751 27.9598C33.6331 27.9598 33.2781 27.8372 33.0081 27.5919C32.7621 27.3222 32.6401 26.9665 32.6401 26.5251V9.27093C32.6401 8.82943 32.7621 8.48603 33.0081 8.24083C33.2781 7.97103 33.6331 7.83613 34.0751 7.83613C34.4921 7.83613 34.8241 7.97103 35.0691 8.24083C35.3391 8.48603 35.4741 8.82943 35.4741 9.27093V26.5251C35.4741 26.9665 35.3391 27.3222 35.0691 27.5919C34.8241 27.8372 34.4921 27.9598 34.0751 27.9598ZM34.0381 4.01003C33.4981 4.01003 33.0321 3.81383 32.6401 3.4214C32.2471 3.02898 32.0511 2.55072 32.0511 1.98662C32.0511 1.37346 32.2471 0.8952 32.6401 0.55184C33.0571 0.18394 33.5351 0 34.0751 0C34.5911 0 35.0451 0.18394 35.4371 0.55184C35.8541 0.8952 36.0631 1.37346 36.0631 1.98662C36.0631 2.55072 35.8671 3.02898 35.4741 3.4214C35.0811 3.81383 34.6031 4.01003 34.0381 4.01003ZM54.9121 27.9598C54.6181 27.9598 54.3721 27.9108 54.1761 27.8127C54.0041 27.7145 53.8201 27.5429 53.6241 27.2976L47.2551 19.204L46.1511 18.2475L39.7461 10.117C39.4761 9.79813 39.3411 9.46703 39.3411 9.12373C39.3661 8.78043 39.4881 8.48603 39.7091 8.24083C39.9301 7.97103 40.2491 7.83613 40.6661 7.83613C41.0841 7.83613 41.4391 7.98323 41.7341 8.27763L47.9181 16.1873L48.9121 16.9966L55.7591 25.7525C56.0771 26.1449 56.2131 26.5128 56.1641 26.8562C56.1141 27.1995 55.9551 27.4694 55.6851 27.6655C55.4401 27.8617 55.1821 27.9598 54.9121 27.9598ZM40.3351 27.9598C39.9431 27.9598 39.6241 27.8372 39.3781 27.5919C39.1571 27.3466 39.0351 27.0523 39.0101 26.709C39.0101 26.3657 39.1451 26.0346 39.4151 25.7157L46.1881 17.2541L47.7711 19.3511L41.3291 27.5184C41.1081 27.8127 40.7771 27.9598 40.3351 27.9598ZM48.9491 18.3946L47.1451 16.5552L53.5141 8.49833C53.6851 8.25303 53.8691 8.08143 54.0661 7.98323C54.2871 7.88513 54.5081 7.83613 54.7281 7.83613C55.1451 7.83613 55.4651 7.97103 55.6851 8.24083C55.9061 8.48603 56.0041 8.79263 55.9801 9.16053C55.9801 9.50383 55.8561 9.83493 55.6121 10.1538L48.9491 18.3946Z" fill="#820505"/>
<path d="M58.217 7.85693H47.437V29.0107H58.217V7.85693Z" fill="white"/>
<path d="M46.7991 15.8722C45.6991 16.6706 45.4561 18.2086 46.2541 19.3074L52.5161 27.9202C52.7291 28.2129 53.1391 28.2779 53.4311 28.0651L56.3521 25.9444C56.6451 25.7316 56.7101 25.3218 56.4971 25.0291L50.2361 16.4163C49.4371 15.3175 47.8981 15.0739 46.7991 15.8722Z" fill="#FFCB39"/>
<path d="M54.484 22.8339L54.748 22.6392L55.137 23.1682L54.873 23.3629L54.484 22.8339ZM53.285 24.5316C53.139 24.6392 52.934 24.608 52.826 24.462C52.718 24.3159 52.75 24.1103 52.896 24.0027L53.285 24.5316ZM54.873 23.3629L53.285 24.5316L52.896 24.0027L54.484 22.8339L54.873 23.3629Z" fill="#820505"/>
<path d="M53.432 21.3885L53.696 21.1938L54.085 21.7228L53.821 21.9175L53.432 21.3885ZM52.868 22.6187C52.722 22.7263 52.517 22.6951 52.409 22.5491C52.301 22.403 52.333 22.1974 52.479 22.0898L52.868 22.6187ZM53.821 21.9175L52.868 22.6187L52.479 22.0898L53.432 21.3885L53.821 21.9175Z" fill="#820505"/>
<path d="M52.3801 19.9432L52.6451 19.7485L53.0341 20.2775L52.7701 20.4722L52.3801 19.9432ZM51.1821 21.6409C51.0361 21.7485 50.8311 21.7172 50.7231 21.5713C50.6151 21.4252 50.6461 21.2195 50.7921 21.1119L51.1821 21.6409ZM52.7701 20.4722L51.1821 21.6409L50.7921 21.1119L52.3801 19.9432L52.7701 20.4722Z" fill="#820505"/>
<path d="M46.7991 19.8395C45.6991 19.041 45.4561 17.5031 46.2541 16.4043L52.5161 7.79117C52.7291 7.49837 53.1391 7.43348 53.4321 7.64617L56.3521 9.76697C56.6451 9.97967 56.7101 10.3895 56.4971 10.6824L50.2361 19.2954C49.4371 20.3942 47.8981 20.6378 46.7991 19.8395Z" fill="#FFDF41"/>
<path d="M54.615 12.7065L54.88 12.9013L55.269 12.3724L55.004 12.1775L54.615 12.7065ZM53.416 11.0088C53.27 10.9012 53.065 10.9325 52.958 11.0784C52.85 11.2245 52.881 11.4302 53.027 11.5378L53.416 11.0088ZM55.004 12.1775L53.416 11.0088L53.027 11.5378L54.615 12.7065L55.004 12.1775Z" fill="#820505"/>
<path d="M53.5641 14.1516L53.8281 14.3465L54.2171 13.8175L53.9531 13.6226L53.5641 14.1516ZM53.0001 12.9214C52.8541 12.8138 52.6491 12.8451 52.5411 12.991C52.4331 13.1371 52.4651 13.3428 52.6111 13.4504L53.0001 12.9214ZM53.9531 13.6226L53.0001 12.9214L52.6111 13.4504L53.5641 14.1516L53.9531 13.6226Z" fill="#820505"/>
<path d="M52.5121 15.5971L52.7761 15.792L53.1651 15.263L52.9011 15.0681L52.5121 15.5971ZM51.3131 13.8994C51.1671 13.7918 50.9621 13.8231 50.8541 13.9691C50.7461 14.1152 50.7781 14.3208 50.9241 14.4284L51.3131 13.8994ZM52.9011 15.0681L51.3131 13.8994L50.9241 14.4284L52.5121 15.5971L52.9011 15.0681Z" fill="#820505"/>
<path opacity="0.8" d="M48.226 18.6308C48.662 18.6308 49.015 18.2779 49.015 17.8425C49.015 17.4071 48.662 17.0542 48.226 17.0542C47.791 17.0542 47.437 17.4071 47.437 17.8425C47.437 18.2779 47.791 18.6308 48.226 18.6308Z" fill="#820505"/>
</svg>
